<svg xmlns="http://www.w3.org/2000/svg" width="1050" height="296" viewBox="0 0 1050 296">
  <g transform="translate(0 .5)">
    <path d="M88.4770947 146.824273C88.8887975 147.956456 89.1075113 148.869907 89.1332427 149.564656 89.1589741 150.259404 88.9659913 150.786891 88.5542885 151.147131 88.1425858 151.507371 87.4607132 151.73895 86.5086505 151.841876 85.5565878 151.944801 84.2829014 151.996263 82.6875531 151.996263 81.0922048 151.996263 79.8185184 151.957667 78.8664557 151.880472 77.914393 151.803278 77.1939239 151.674623 76.7050269 151.494503 76.2161298 151.314383 75.8558953 151.069938 75.6243125 150.761161 75.3927296 150.452384 75.1740158 150.066418 74.9681644 149.603253L66.3996429 125.287178 24.8693317 125.287178 16.6867796 149.294477C16.5323911 149.757643 16.3265428 150.156474 16.0692285 150.490983 15.8119143 150.825491 15.4388142 151.108532 14.9499172 151.340115 14.4610201 151.571698 13.7662821 151.73895 12.8656822 151.841876 11.9650823 151.944801 10.7943201 151.996263 9.35336033 151.996263 7.86093772 151.996263 6.6387134 151.931936 5.68665069 151.803279 4.73458799 151.674621 4.06558099 151.430177 3.67960963 151.069937 3.29363826 150.709697 3.11352099 150.18221 3.13925242 149.487462 3.16498384 148.792714 3.38369767 147.879262 3.79540046 146.747079L37.2975475 53.9600266C37.5033989 53.3939353 37.7735748 52.9307766 38.1080833 52.5705367 38.4425918 52.2102967 38.9314815 51.9272553 39.5747672 51.7214039 40.2180528 51.5155525 41.041446 51.3740318 42.0449715 51.2968375 43.0484971 51.2196433 44.3221835 51.1810467 45.866069 51.1810467 47.5128801 51.1810467 48.8766251 51.2196433 49.957345 51.2968375 51.0380648 51.3740318 51.9129201 51.5155525 52.5819371 51.7214039 53.2509542 51.9272553 53.7655749 52.2231623 54.1258149 52.6091336 54.4860548 52.995105 54.7690962 53.4711292 54.9749476 54.0372205L88.4770947 146.824273zM45.4800995 64.9215586L45.4029056 64.9215586 28.1886688 114.711616 62.925918 114.711616 45.4800995 64.9215586zM118.368254 149.526059C118.368254 149.937762 118.26533 150.297996 118.059479 150.606773 117.853627 150.91555 117.493393 151.159995 116.978764 151.340115 116.464136 151.520235 115.782263 151.674621 114.933126 151.803279 114.083989 151.931936 113.016151 151.996263 111.72958 151.996263 110.494472 151.996263 109.439499 151.931936 108.564631 151.803279 107.689762 151.674621 106.995024 151.520235 106.480396 151.340115 105.965767 151.159995 105.605533 150.91555 105.399681 150.606773 105.19383 150.297996 105.090906 149.937762 105.090906 149.526059L105.090906 53.6512511C105.090906 53.2395483 105.206695 52.8793138 105.438278 52.5705367 105.669861 52.2617596 106.055827 52.0173147 106.596186 51.8371947 107.136546 51.6570748 107.831284 51.5026885 108.680421 51.3740314 109.529558 51.2453743 110.545934 51.1810467 111.72958 51.1810467 113.016151 51.1810467 114.083989 51.2453743 114.933126 51.3740314 115.782263 51.5026885 116.464136 51.6570748 116.978764 51.8371947 117.493393 52.0173147 117.853627 52.2617596 118.059479 52.5705367 118.26533 52.8793138 118.368254 53.2395483 118.368254 53.6512511L118.368254 149.526059zM322.722737 137.406619C322.722737 138.230024 322.697005 138.950493 322.645543 139.568047 322.59408 140.185602 322.504021 140.725953 322.375364 141.189119 322.246707 141.652285 322.079455 142.063981 321.873604 142.424221 321.667752 142.784461 321.307518 143.221889 320.792889 143.736517 320.278261 144.251146 319.197557 145.035943 317.550746 146.090931 315.903935 147.145919 313.858317 148.175161 311.413832 149.178686 308.969347 150.182212 306.164664 151.031336 302.999698 151.726085 299.834733 152.420833 296.373908 152.768202 292.617121 152.768202 286.132802 152.768202 280.27899 151.687499 275.055511 149.526059 269.832032 147.364619 265.380562 144.173971 261.700969 139.954017 258.021375 135.734063 255.190961 130.523528 253.209641 124.322255 251.228321 118.120982 250.237676 110.980618 250.237676 102.900951 250.237676 94.6154324 251.305515 87.2306244 253.441223 80.7463055 255.576931 74.2619865 258.574597 68.7684098 262.434311 64.2654106 266.294024 59.7624113 270.912746 56.3273177 276.290613 53.9600266 281.668481 51.5927356 287.625216 50.4091078 294.160998 50.4091078 297.042918 50.4091078 299.847601 50.6792837 302.575132 51.2196437 305.302663 51.7600036 307.824305 52.4418761 310.140133 53.2652817 312.455961 54.0886872 314.514444 55.0407357 316.315644 56.1214555 318.116844 57.2021753 319.364799 58.0898961 320.059547 58.7846446 320.754296 59.479393 321.204589 60.0068793 321.41044 60.3671193 321.616292 60.7273592 321.783544 61.1519214 321.912201 61.6408184 322.040858 62.1297155 322.143782 62.7086638 322.220976 63.3776809 322.298171 64.0466979 322.336767 64.8443601 322.336767 65.7706914 322.336767 66.7999484 322.285305 67.6748037 322.182379 68.3952835 322.079454 69.1157634 321.925067 69.7204428 321.719216 70.2093399 321.513365 70.698237 321.26892 71.0584715 320.985874 71.2900543 320.702828 71.5216371 320.355459 71.6374268 319.943757 71.6374268 319.223277 71.6374268 318.219766 71.1356716 316.933195 70.132146 315.646624 69.1286205 313.986972 68.0221858 311.954189 66.8128089 309.921407 65.6034319 307.451227 64.4969973 304.543576 63.4934717 301.635925 62.4899462 298.149369 61.9881909 294.083804 61.9881909 289.657999 61.9881909 285.631092 62.8759117 282.002961 64.65138 278.37483 66.4268483 275.27424 69.0385487 272.701098 72.4865596 270.127955 75.9345704 268.1338 80.1415952 266.718571 85.1077601 265.303343 90.073925 264.595739 95.747619 264.595739 102.129012 264.595739 108.458943 265.277612 114.055443 266.641377 118.918683 268.005143 123.781922 269.960702 127.847426 272.508113 131.115317 275.055524 134.383208 278.181845 136.853387 281.88717 138.52593 285.592495 140.198473 289.786655 141.034731 294.469774 141.034731 298.432413 141.034731 301.893238 140.545842 304.852352 139.568047 307.811465 138.590253 310.333107 137.496684 312.417353 136.287307 314.501598 135.07793 316.212712 133.984361 317.550746 133.006567 318.88878 132.028773 319.943753 131.539883 320.715695 131.539883 321.075935 131.539883 321.384708 131.617076 321.642022 131.771465 321.899336 131.925853 322.105185 132.22176 322.259573 132.659195 322.413962 133.096629 322.529751 133.701308 322.606946 134.473251 322.68414 135.245194 322.722737 136.222973 322.722737 137.406619zM421.260083 100.430747C421.260083 108.510414 420.308035 115.792298 418.403909 122.276617 416.499784 128.760936 413.656504 134.280243 409.873985 138.834706 406.091466 143.389168 401.344089 146.888589 395.631713 149.333074 389.919337 151.77756 383.254998 152.999784 375.638496 152.999784 368.12492 152.999784 361.627833 151.880484 356.147039 149.64185 350.666246 147.403216 346.137583 144.148239 342.560915 139.876823 338.984247 135.605407 336.321085 130.304813 334.571348 123.974882 332.821611 117.644952 331.946756 110.363068 331.946756 102.129012 331.946756 94.2551964 332.898804 87.1019677 334.80293 80.6691116 336.707055 74.2362555 339.5632 68.7684098 343.371451 64.2654106 347.179702 59.7624113 351.939944 56.2887211 357.65232 53.8442358 363.364696 51.3997505 370.029035 50.1775262 377.645537 50.1775262 385.004724 50.1775262 391.411753 51.2839608 396.866815 53.4968633 402.321877 55.7097658 406.863405 58.9390111 410.491536 63.1846962 414.119667 67.4303812 416.821426 72.679513 418.596894 78.9322491 420.372362 85.1849853 421.260083 92.3510795 421.260083 100.430747zM407.28799 101.357073C407.28799 95.69616 406.786234 90.4341626 405.782709 85.5709234 404.779183 80.7076842 403.106666 76.4877939 400.765106 72.9111259 398.423547 69.334458 395.297225 66.5426403 391.386049 64.5355892 387.474872 62.5285381 382.637437 61.5250276 376.873598 61.5250276 371.109759 61.5250276 366.272324 62.6057312 362.361147 64.7671708 358.449971 66.9286105 355.272188 69.8104868 352.827702 73.4128862 350.383217 77.0152856 348.633506 81.2223104 347.578518 86.0340868 346.52353 90.8458631 345.996043 95.9020122 345.996043 101.202686 345.996043 107.06945 346.484933 112.472968 347.462727 117.413402 348.440521 122.353835 350.087308 126.612322 352.403136 130.18899 354.718964 133.765658 357.819554 136.54461 361.704999 138.52593 365.590444 140.50725 370.466476 141.497895 376.333241 141.497895 382.148543 141.497895 387.03744 140.417191 391.00008 138.255751 394.962719 136.094312 398.153368 133.173839 400.572122 129.494245 402.990875 125.814652 404.714855 121.556165 405.744112 116.718657 406.773369 111.881149 407.28799 106.760672 407.28799 101.357073zM550.883637 149.526059C550.883637 149.937762 550.780713 150.297996 550.574861 150.606773 550.36901 150.91555 550.008775 151.159995 549.494147 151.340115 548.979518 151.520235 548.323377 151.674621 547.525703 151.803279 546.728029 151.931936 545.685922 151.996263 544.39935 151.996263 543.215705 151.996263 542.199329 151.931936 541.350192 151.803279 540.501055 151.674621 539.832048 151.520235 539.343151 151.340115 538.854254 151.159995 538.506885 150.91555 538.301033 150.606773 538.095182 150.297996 537.992258 149.937762 537.992258 149.526059L537.992258 62.5285481 537.83787 62.5285481 502.251488 149.912028C502.097099 150.272268 501.878386 150.581041 501.59534 150.838355 501.312294 151.095669 500.900598 151.314383 500.360238 151.494503 499.819878 151.674623 499.176602 151.803278 498.430391 151.880472 497.684179 151.957667 496.796458 151.996263 495.767202 151.996263 494.686482 151.996263 493.760164 151.944801 492.988222 151.841876 492.216279 151.73895 491.573003 151.597429 491.058374 151.417309 490.543746 151.237189 490.144915 151.018475 489.861869 150.761161 489.578823 150.503847 489.385841 150.220805 489.282915 149.912028L455.240411 62.5285481 455.163217 62.5285481 455.163217 149.526059C455.163217 149.937762 455.060293 150.297996 454.854441 150.606773 454.64859 150.91555 454.288355 151.159995 453.773727 151.340115 453.259098 151.520235 452.590091 151.674621 451.766686 151.803279 450.94328 151.931936 449.888308 151.996263 448.601736 151.996263 447.366628 151.996263 446.337387 151.931936 445.513981 151.803279 444.690575 151.674621 444.034434 151.520235 443.545537 151.340115 443.05664 151.159995 442.722136 150.91555 442.542016 150.606773 442.361896 150.297996 442.271838 149.937762 442.271838 149.526059L442.271838 57.6653332C442.271838 55.5038936 442.837921 53.9600313 443.970103 53.0337 445.102286 52.1073687 446.363107 51.64421 447.752604 51.64421L455.780768 51.64421C457.427579 51.64421 458.868517 51.7985963 460.103626 52.1073734 461.338734 52.4161504 462.419438 52.9050402 463.345769 53.5740572 464.2721 54.2430742 465.044031 55.0921985 465.661586 56.1214555 466.27914 57.1507125 466.819492 58.3600713 467.282657 59.7495682L496.230365 132.08024 496.616334 132.08024 526.72195 59.9811498C527.288042 58.4372644 527.905587 57.1249814 528.574604 56.0442616 529.243621 54.9635418 529.976955 54.101552 530.774629 53.4582664 531.572304 52.8149808 532.460024 52.3518221 533.437818 52.0687764 534.415613 51.7857307 535.547778 51.64421 536.834349 51.64421L545.248483 51.64421C546.020426 51.64421 546.753761 51.7599997 547.448509 51.9915825 548.143257 52.2231653 548.735071 52.5833999 549.223968 53.0722969 549.712865 53.561194 550.111697 54.1787389 550.420474 54.9249502 550.729251 55.6711615 550.883637 56.5846134 550.883637 57.6653332L550.883637 149.526059zM686.035116 149.526059C686.035116 149.937762 685.932192 150.297996 685.726341 150.606773 685.520489 150.91555 685.160255 151.159995 684.645626 151.340115 684.130998 151.520235 683.474856 151.674621 682.677182 151.803279 681.879508 151.931936 680.837401 151.996263 679.55083 151.996263 678.367184 151.996263 677.350808 151.931936 676.501671 151.803279 675.652534 151.674621 674.983527 151.520235 674.49463 151.340115 674.005733 151.159995 673.658364 150.91555 673.452513 150.606773 673.246661 150.297996 673.143737 149.937762 673.143737 149.526059L673.143737 62.5285481 672.989349 62.5285481 637.402967 149.912028C637.248579 150.272268 637.029865 150.581041 636.746819 150.838355 636.463774 151.095669 636.052077 151.314383 635.511717 151.494503 634.971357 151.674623 634.328081 151.803278 633.58187 151.880472 632.835659 151.957667 631.947938 151.996263 630.918681 151.996263 629.837961 151.996263 628.911644 151.944801 628.139701 151.841876 627.367758 151.73895 626.724482 151.597429 626.209854 151.417309 625.695225 151.237189 625.296394 151.018475 625.013348 150.761161 624.730303 150.503847 624.53732 150.220805 624.434394 149.912028L590.39189 62.5285481 590.314696 62.5285481 590.314696 149.526059C590.314696 149.937762 590.211772 150.297996 590.005921 150.606773 589.800069 150.91555 589.439835 151.159995 588.925206 151.340115 588.410578 151.520235 587.741571 151.674621 586.918165 151.803279 586.09476 151.931936 585.039787 151.996263 583.753216 151.996263 582.518107 151.996263 581.488866 151.931936 580.66546 151.803279 579.842055 151.674621 579.185913 151.520235 578.697016 151.340115 578.208119 151.159995 577.873616 150.91555 577.693496 150.606773 577.513376 150.297996 577.423317 149.937762 577.423317 149.526059L577.423317 57.6653332C577.423317 55.5038936 577.9894 53.9600313 579.121582 53.0337 580.253765 52.1073687 581.514586 51.64421 582.904083 51.64421L590.932247 51.64421C592.579058 51.64421 594.019997 51.7985963 595.255105 52.1073734 596.490213 52.4161504 597.570917 52.9050402 598.497248 53.5740572 599.423579 54.2430742 600.195511 55.0921985 600.813065 56.1214555 601.430619 57.1507125 601.970971 58.3600713 602.434136 59.7495682L631.381844 132.08024 631.767814 132.08024 661.87343 59.9811498C662.439521 58.4372644 663.057066 57.1249814 663.726083 56.0442616 664.3951 54.9635418 665.128434 54.101552 665.926109 53.4582664 666.723783 52.8149808 667.611504 52.3518221 668.589298 52.0687764 669.567092 51.7857307 670.699258 51.64421 671.985829 51.64421L680.399962 51.64421C681.171905 51.64421 681.90524 51.7599997 682.599988 51.9915825 683.294737 52.2231653 683.886551 52.5833999 684.375448 53.0722969 684.864345 53.561194 685.263176 54.1787389 685.571953 54.9249502 685.88073 55.6711615 686.035116 56.5846134 686.035116 57.6653332L686.035116 149.526059zM796.25297 100.430747C796.25297 108.510414 795.300921 115.792298 793.396796 122.276617 791.492671 128.760936 788.649391 134.280243 784.866872 138.834706 781.084352 143.389168 776.336976 146.888589 770.624599 149.333074 764.912223 151.77756 758.247884 152.999784 750.631383 152.999784 743.117807 152.999784 736.620719 151.880484 731.139926 149.64185 725.659133 147.403216 721.13047 144.148239 717.553802 139.876823 713.977134 135.605407 711.313971 130.304813 709.564235 123.974882 707.814498 117.644952 706.939642 110.363068 706.939642 102.129012 706.939642 94.2551964 707.891691 87.1019677 709.795816 80.6691116 711.699942 74.2362555 714.556087 68.7684098 718.364338 64.2654106 722.172589 59.7624113 726.932831 56.2887211 732.645207 53.8442358 738.357583 51.3997505 745.021922 50.1775262 752.638424 50.1775262 759.997611 50.1775262 766.40464 51.2839608 771.859702 53.4968633 777.314764 55.7097658 781.856292 58.9390111 785.484423 63.1846962 789.112553 67.4303812 791.814313 72.679513 793.589781 78.9322491 795.365249 85.1849853 796.25297 92.3510795 796.25297 100.430747zM782.280876 101.357073C782.280876 95.69616 781.779121 90.4341626 780.775596 85.5709234 779.77207 80.7076842 778.099552 76.4877939 775.757993 72.9111259 773.416433 69.334458 770.290112 66.5426403 766.378936 64.5355892 762.467759 62.5285381 757.630324 61.5250276 751.866485 61.5250276 746.102646 61.5250276 741.265211 62.6057312 737.354034 64.7671708 733.442858 66.9286105 730.265074 69.8104868 727.820589 73.4128862 725.376104 77.0152856 723.626393 81.2223104 722.571405 86.0340868 721.516416 90.8458631 720.98893 95.9020122 720.98893 101.202686 720.98893 107.06945 721.47782 112.472968 722.455614 117.413402 723.433408 122.353835 725.080194 126.612322 727.396023 130.18899 729.711851 133.765658 732.812441 136.54461 736.697886 138.52593 740.583331 140.50725 745.459363 141.497895 751.326128 141.497895 757.141429 141.497895 762.030327 140.417191 765.992966 138.255751 769.955605 136.094312 773.146254 133.173839 775.565008 129.494245 777.983762 125.814652 779.707742 121.556165 780.736999 116.718657 781.766256 111.881149 782.280876 106.760672 782.280876 101.357073zM892.760346 146.052334C892.760346 147.081591 892.593094 147.956446 892.258586 148.676926 891.924077 149.397406 891.48665 149.98922 890.94629 150.452386 890.40593 150.915551 889.80125 151.250055 889.132233 151.455906 888.463216 151.661758 887.794209 151.764682 887.125192 151.764682L882.879528 151.764682C881.541494 151.764682 880.370732 151.623161 879.367207 151.340115 878.363681 151.05707 877.411633 150.542449 876.511033 149.796238 875.610433 149.050026 874.709847 148.03365 873.809247 146.747079 872.908647 145.460508 871.918002 143.813721 870.837282 141.80667L839.342176 84.9919693C837.695365 82.0585869 836.035713 78.9837278 834.36317 75.7672998 832.690628 72.5508717 831.1339 69.4245506 829.69294 66.3882425L829.538552 66.3882425C829.641478 70.0935676 829.718671 73.8760302 829.770134 77.7357439 829.821597 81.5954575 829.847328 85.4293823 829.847328 89.2376331L829.847328 149.526059C829.847328 149.886299 829.744404 150.233668 829.538552 150.568176 829.332701 150.902685 828.985332 151.159995 828.496435 151.340115 828.007538 151.520235 827.364262 151.674621 826.566588 151.803279 825.768914 151.931936 824.752538 151.996263 823.517429 151.996263 822.282321 151.996263 821.265945 151.931936 820.468271 151.803279 819.670597 151.674621 819.040186 151.520235 818.57702 151.340115 818.113855 151.159995 817.779351 150.902685 817.5735 150.568176 817.367649 150.233668 817.264724 149.886299 817.264724 149.526059L817.264724 57.3565577C817.264724 55.2980437 817.830807 53.8313745 818.96299 52.9565061 820.095173 52.0816377 821.330262 51.64421 822.668296 51.64421L828.998195 51.64421C830.490618 51.64421 831.738573 51.7728652 832.742099 52.0301795 833.745624 52.2874937 834.646211 52.7120558 835.443885 53.3038786 836.241559 53.8957014 837.01349 54.7190946 837.759701 55.774083 838.505913 56.8290714 839.31644 58.1542199 840.191309 59.7495682L864.430189 103.595696C865.922612 106.271764 867.36355 108.883465 868.753047 111.430876 870.142544 113.978287 871.480558 116.487063 872.767129 118.95728 874.0537 121.427496 875.327387 123.859079 876.588227 126.252102 877.849066 128.645124 879.097022 131.050977 880.33213 133.46973L880.409324 133.46973C880.306398 129.404165 880.242071 125.17141 880.216339 120.771336 880.190608 116.371262 880.177742 112.138507 880.177742 108.072942L880.177742 53.8828328C880.177742 53.5225928 880.280667 53.1880893 880.486518 52.8793122 880.692369 52.5705351 881.039738 52.3003592 881.528635 52.0687764 882.017532 51.8371936 882.660808 51.6699418 883.458483 51.5670161 884.256157 51.4640904 885.298264 51.4126284 886.584835 51.4126284 887.717018 51.4126284 888.694797 51.4640904 889.518203 51.5670161 890.341608 51.6699418 890.984884 51.8371936 891.44805 52.0687764 891.911216 52.3003592 892.245719 52.5705351 892.45157 52.8793122 892.657422 53.1880893 892.760346 53.5225928 892.760346 53.8828328L892.760346 146.052334zM972.889709 123.511719C972.889709 128.194838 972.027719 132.363266 970.303714 136.017129 968.579708 139.670991 966.186722 142.771581 963.124682 145.318992 960.062643 147.866403 956.460297 149.783365 952.317538 151.069937 948.174779 152.356508 943.710444 152.999784 938.924399 152.999784 935.579313 152.999784 932.478723 152.716742 929.622535 152.150651 926.766347 151.58456 924.218974 150.889822 921.98034 150.066416 919.741707 149.243011 917.863341 148.393886 916.345187 147.519018 914.827033 146.644149 913.77206 145.897949 913.180237 145.280395 912.588415 144.662841 912.150987 143.878044 911.867941 142.925982 911.584896 141.973919 911.443375 140.700232 911.443375 139.104884 911.443375 137.972701 911.494837 137.033519 911.597763 136.287307 911.700688 135.541096 911.855075 134.936417 912.060926 134.473251 912.266777 134.010085 912.524088 133.688447 912.832865 133.508327 913.141642 133.328207 913.501876 133.238149 913.913579 133.238149 914.634059 133.238149 915.650435 133.675576 916.962738 134.550445 918.27504 135.425313 919.960423 136.377362 922.018937 137.406619 924.077451 138.435876 926.560497 139.40079 929.468147 140.301389 932.375798 141.201989 935.733699 141.652282 939.54195 141.652282 942.423869 141.652282 945.061301 141.266317 947.454323 140.494374 949.847346 139.722431 951.905829 138.628862 953.629834 137.213634 955.35384 135.798406 956.678988 134.061561 957.605319 132.003047 958.531651 129.944533 958.994809 127.603008 958.994809 124.978403 958.994809 122.147946 958.351533 119.729229 957.064962 117.722177 955.778391 115.715126 954.080142 113.95255 951.970166 112.434396 949.860189 110.916242 947.454337 109.526766 944.752537 108.265926 942.050738 107.005086 939.284651 105.718535 936.454194 104.406232 933.623738 103.093929 930.870516 101.640126 928.194448 100.044777 925.51838 98.449429 923.125394 96.5710632 921.015417 94.4096235 918.90544 92.2481839 917.194326 89.7136766 915.882023 86.8060256 914.569721 83.8983747 913.913579 80.411819 913.913579 76.3462539 913.913579 72.1777632 914.672645 68.4596281 916.190799 65.1917372 917.708953 61.9238463 919.818898 59.1834907 922.520698 56.9705882 925.222497 54.7576857 928.438877 53.0723027 932.169934 51.9143886 935.90099 50.7564745 939.927898 50.1775262 944.250777 50.1775262 946.463679 50.1775262 948.689414 50.370509 950.928048 50.7564803 953.166682 51.1424517 955.276627 51.6570725 957.257947 52.3003581 959.239267 52.9436437 961.001843 53.6641128 962.545728 54.4617869 964.089614 55.2594611 965.10599 55.902737 965.594887 56.3916341 966.083784 56.8805312 966.405422 57.2664967 966.55981 57.5495424 966.714199 57.8325881 966.842854 58.1928226 966.94578 58.6302568 967.048705 59.067691 967.125898 59.5951773 967.177361 60.2127315 967.228824 60.8302857 967.254555 61.6279479 967.254555 62.605742 967.254555 63.5320733 967.215959 64.3554665 967.138764 65.0759464 967.06157 65.7964263 966.94578 66.4011057 966.791392 66.8900027 966.637003 67.3788998 966.41829 67.7391343 966.135244 67.9707172 965.852198 68.2023 965.53056 68.3180897 965.17032 68.3180897 964.604229 68.3180897 963.716508 67.9578551 962.507131 67.2373752 961.297754 66.5168954 959.81822 65.7063676 958.068483 64.8057678 956.318746 63.9051679 954.247397 63.0817747 951.854375 62.3355634 949.461352 61.5893521 946.772459 61.216252 943.787614 61.216252 941.00862 61.216252 938.589902 61.5893521 936.531388 62.3355634 934.472874 63.0817747 932.774626 64.0724197 931.436592 65.3075281 930.098558 66.5426364 929.095047 68.0093056 928.42603 69.7075796 927.757013 71.4058536 927.422509 73.2070263 927.422509 75.1111517 927.422509 77.8901456 928.065785 80.2831321 929.352357 82.2901832 930.638928 84.2972343 932.350042 86.072676 934.48575 87.6165614 936.621458 89.1604469 939.053041 90.575654 941.780572 91.8622252 944.508103 93.1487965 947.287056 94.4482139 950.117512 95.7605165 952.947969 97.0728192 955.726921 98.5137573 958.454452 100.083374 961.181983 101.652991 963.613566 103.505626 965.749274 105.641334 967.884983 107.777042 969.608962 110.298684 970.921265 113.206335 972.233568 116.113986 972.889709 119.54908 972.889709 123.511719z" transform="translate(77 45.467)"/>
    <path d="M190.9588,13.854 C119.136407,13.854 60.46,73.7450698 60.46,147.26 C60.46,220.858164 119.215381,281.0808 190.9588,281.0808 C223.57439,281.0808 254.445557,268.6953 278.045906,246.749852 L280.13994,244.802654 L282.185286,246.800933 C286.414013,250.932349 286.154844,258.011584 281.608512,261.770803 C255.924575,283.007922 224.057574,294.9338 190.9588,294.9338 C111.942595,294.9338 47,228.271829 47,147.26 C47,66.3236917 111.868766,0 190.9588,0 C226.895419,0 260.810761,13.6652039 287.22532,37.9964499 L289.466282,40.0606679 L287.367635,42.2694205 C283.442956,46.4000064 277.150394,46.7750931 272.780107,43.1410445 C250.061481,24.256559 221.361359,13.854 190.9588,13.854 Z" opacity=".195" transform="matrix(-1 0 0 1 336.466 0)"/>
    <path d="M143.9588,13.854 C72.136407,13.854 13.46,73.7450698 13.46,147.26 C13.46,220.858164 72.2153812,281.0808 143.9588,281.0808 C176.57439,281.0808 207.445557,268.6953 231.045906,246.749852 L233.13994,244.802654 L235.185286,246.800933 C239.414013,250.932349 239.154844,258.011584 234.608512,261.770803 C208.924575,283.007922 177.057574,294.9338 143.9588,294.9338 C64.9425947,294.9338 1.42108547e-14,228.271829 1.42108547e-14,147.26 C1.42108547e-14,66.3236917 64.8687664,0 143.9588,0 C179.895419,0 213.810761,13.6652039 240.22532,37.9964499 L242.466282,40.0606679 L240.367635,42.2694205 C236.442956,46.4000064 230.150394,46.7750931 225.780107,43.1410445 C203.061481,24.256559 174.361359,13.854 143.9588,13.854 Z"/>
  </g>
</svg>
