<svg xmlns="http://www.w3.org/2000/svg" width="25" height="25" viewBox="0 0 25 25">
  <path d="M32.421875,39.9179688 C34.552875,39.9179688 36.510875,39.1689688 38.054875,37.9259688 L45.712875,45.6229687 C46.101875,46.0149688 46.733875,46.0159688 47.126875,45.6259687 C47.518875,45.2359687 47.519875,44.6029688 47.130875,44.2119687 L39.462875,36.5059688 C40.685875,34.9699687 41.421875,33.0289688 41.421875,30.9179688 C41.421875,25.9549687 37.384875,21.9179688 32.421875,21.9179688 C27.458875,21.9179688 23.421875,25.9549687 23.421875,30.9179688 C23.421875,35.8799688 27.458875,39.9179688 32.421875,39.9179688 Z M32.421875,23.9179688 C36.280875,23.9179688 39.421875,27.0579688 39.421875,30.9179688 C39.421875,34.7769688 36.280875,37.9179688 32.421875,37.9179688 C28.561875,37.9179688 25.421875,34.7769688 25.421875,30.9179688 C25.421875,27.0579688 28.561875,23.9179688 32.421875,23.9179688 Z" transform="translate(-23 -21)"/>
</svg>
